<svg width="60" height="52" viewBox="0 0 60 52" fill="none" xmlns="http://www.w3.org/2000/svg">
    <path d="M27.9588 0.0274773C20.767 0.474949 13.8853 3.19814 8.77567 7.63452C4.16817 11.6106 1.30324 16.5201 0.254742 22.2605C-0.084914 24.1399 -0.084914 27.8603 0.254742 29.8036C0.919286 33.5113 2.49942 37.1038 4.83271 40.2106C8.96765 45.7081 15.5393 49.7481 22.8492 51.2823C25.9652 51.9472 30.4841 52.1773 33.5705 51.8577C40.3637 51.1289 46.3741 48.5847 51.2179 44.3785C56.0764 40.185 59.0152 34.9815 59.857 29.1005C60.0785 27.5407 60.0342 24.2294 59.7831 22.5546C58.646 15.0881 53.7284 8.35048 46.4036 4.22094C42.8151 2.20092 38.562 0.794571 34.4566 0.283173C32.8469 0.0786133 29.3618 -0.0620193 27.9588 0.0274773ZM34.3089 17.2744V22.3244H40.1421H45.9754V26.0321V29.7397H40.1421H34.3089V34.7898V39.8398H30.0263H25.7437V34.7898V29.7397H19.9105H14.0773V26.0321V22.3244H19.9105H25.7437V17.2744V12.2243H30.0263H34.3089V17.2744Z" fill="#0B3B47" />
</svg>