<svg width="27" height="39" viewBox="0 0 27 39" fill="none" xmlns="http://www.w3.org/2000/svg">
<path d="M2.4 1.29989C2.2 1.99989 2.1 10.3999 2.2 19.9999L2 37.5L9 38L12.5 38C21.5 38.2 23.7 37.7999 24.7 36.2999C26.3 34.1999 26.5 4.79989 25 1.89989C24 0.19989 22.8 -0.000106812 13.4 -0.000106812C5.8 -0.000106812 2.8 0.399891 2.4 1.29989ZM23.8 3.19989C24.1 4.79989 23.1 4.99989 13.6 4.99989C5.4 4.99989 3 4.69989 3 3.69989C3 1.19989 4.3 0.899891 13.9 1.19989C22.1 1.49989 23.5 1.79989 23.8 3.19989ZM24 17.9999V29.9999H13.5H3V17.9999V5.99989H13.5H24V17.9999ZM24 33.9999C24 35.8999 23.3 35.9999 13.5 35.9999C3.7 35.9999 3 35.8999 3 33.9999C3 32.0999 3.7 31.9999 13.5 31.9999C23.3 31.9999 24 32.0999 24 33.9999Z" fill="#122335"/>
<path d="M12.3 3.7001C13.2 3.9001 14.8 3.9001 15.8 3.7001C16.7 3.4001 15.9 3.2001 14 3.2001C12.1 3.2001 11.3 3.4001 12.3 3.7001Z" fill="#122335"/>
<path d="M13 34C13 34.5 13.5 35 14 35C14.6 35 15 34.5 15 34C15 33.4 14.6 33 14 33C13.5 33 13 33.4 13 34Z" fill="#122335"/>
<path d="M1.22749 2.26668C-0.110581 4.77195 -0.47551 31.0177 0.74092 35.4318C1.47078 37.8177 2.20064 38.1756 7.79621 37.937L14 37.6984L8.28278 37.3405L2.44392 36.8633V19.565V2.38598L4.30769 1.5L6.5 1C9.17614 1 9.9952 1.17074 9.9952 0.574245C9.9952 -0.141548 9.98098 0.0742455 7.30484 0.0742455C6.09239 0.0742455 5.11464 0.0704651 4.30769 0.230766C2.76681 0.536865 1.86616 1.17054 1.22749 2.26668Z" fill="#122335"/>
</svg>
