<svg width="40" height="29" viewBox="0 0 40 29" fill="none" xmlns="http://www.w3.org/2000/svg">
<path d="M0 14.2065V28.2065H20H40V14.2065V0.206543H20H0V14.2065ZM26.7 7.70654L20 12.2065L13.3 7.70654L6.5 3.20654H20H33.5L26.7 7.70654ZM10.5 11.8065L13 14L8 17.5C5.5 19.3 2 22.0944 2 22.0944C2 22.0944 2 14.9065 2 11.3065V3.20654L5.5 7C7.1 7.9 9.2 10.9065 10.5 11.8065ZM38 22.0944C38 22.0944 34.6 19.3 32 17.5C29.5 15.7 26.6 14.3 27 14C27.5 13.6 30.8 10.5 33 9L38 5.20654V11.2065C38 14.7065 38 22.0944 38 22.0944ZM18.8 19.1944C19.7 20.0944 20.1 20.0944 21 19.1944C21.7 18.4944 22.8 17.9944 23.4 17.9944C25.4 17.9944 37 24.1 37 25.5C37 26.5 33.4 26 20 26C0.4 26 -0.1 27.6 9 21C14.9 16.8 16.9 17.2944 18.8 19.1944Z" fill="#122335"/>
</svg>
