<svg width="40" height="43" viewBox="0 0 40 43" fill="none" xmlns="http://www.w3.org/2000/svg">
<path d="M12.6 3.1C9.5 5.6 7 10 7 13.2C7 17.1 18 38 20 38C22 38 33 17.1 33 13.2C33 10 30.5 5.6 27.4 3.1C23.8 0.200001 16.2 0.200001 12.6 3.1ZM28 4.9C33.5 10.4 33 15.7 26 27C19.7 37.3 20.2 36.7 19 35C7.1 17.3 5.7 11.2 12 4.9C14.4 2.5 15.7 2 20 2C24.3 2 25.6 2.5 28 4.9Z" fill="#122335"/>
<path d="M17.1 11.8C15.9 14.1 17.5 17 20 17C22.5 17 24.1 14 22.9 11.7C21.6 9.5 18.3 9.5 17.1 11.8ZM22.3 12.2C23 14.3 21.9 16 20 16C19 16 18 15.4 17.7 14.7C17 12.7 18.1 11 20 11C21 11 22 11.6 22.3 12.2Z" fill="#122335"/>
<path d="M5.33128 31.6888C-4.9607 34.9138 0.544322 40.3102 14.1872 41.9995C20.367 40.9847 20.5 40.9847 13.4336 40.9847C2.18422 38.2204 -3.29197 35.4174 7.00001 32.4995C11.3083 31.2709 16.102 29.9995 14.1872 29.9995C12.2724 29.9995 8.20346 30.7674 5.33128 31.6888Z" fill="#122335"/>
<path d="M35.701 33.4034C45.2558 38.3713 26.4188 40 16.5 41.2295C9.67578 42.7787 20.6608 42.0042 26.4188 41.2296C34.3093 40.3259 40 38.1331 40 35.1639C40 33.0983 31.8962 30 26.5648 30C25.072 30.1291 31.8624 32.3706 35.701 33.4034Z" fill="#122335"/>
</svg>
