<svg width="590" height="153" viewBox="0 0 590 153" fill="none" xmlns="http://www.w3.org/2000/svg">
<path d="M17.4282 117.475H15.8682L26.3082 33.4746H30.2682L55.4682 111.115L80.5482 33.4746H84.5082L94.9482 117.475H84.9882L76.7082 50.2746L54.9882 117.475H47.4282L25.4682 51.1146L17.4282 117.475ZM106.998 77.5146C106.998 62.9546 110.518 51.9146 117.558 44.3946C124.678 36.7946 133.798 32.9946 144.918 32.9946C156.038 32.9946 164.878 36.2746 171.438 42.8346C178.078 49.3946 181.398 59.8746 181.398 74.2746C181.398 88.6746 177.878 99.5546 170.838 106.915C163.798 114.275 154.398 117.955 142.638 117.955C132.478 117.955 124.158 115.035 117.678 109.195C114.318 106.155 111.678 101.955 109.758 96.5946C107.918 91.1546 106.998 84.7946 106.998 77.5146ZM144.558 34.1946C136.478 34.1946 129.838 37.7946 124.638 44.9946C119.518 52.1946 116.958 62.7546 116.958 76.6746C116.958 90.5946 119.398 100.755 124.278 107.155C129.158 113.555 135.638 116.755 143.718 116.755C151.878 116.755 158.518 113.155 163.638 105.955C168.838 98.6746 171.438 88.1546 171.438 74.3946C171.438 60.5546 168.958 50.3946 163.998 43.9146C159.118 37.4346 152.638 34.1946 144.558 34.1946ZM195.553 117.475H193.993V33.4746H198.073L247.993 111.115V33.4746H249.553V117.475H240.793L195.553 47.8746V117.475ZM291.646 117.475H281.686V34.6746H260.926V33.4746H312.526V34.6746H291.646V117.475ZM311.585 117.475H310.145L346.025 33.4746L347.345 32.8746L377.585 117.475H367.385L358.025 91.0746H322.985L311.585 117.475ZM342.305 46.4346L323.465 89.8746H357.665L342.305 46.4346ZM434.021 117.475H388.421V33.4746H398.381V116.275H434.021V117.475ZM491.816 33.4746C493.336 34.9946 494.096 36.9546 494.096 39.3546C494.096 41.3546 493.656 43.3946 492.776 45.4746L462.056 117.475L460.736 118.075L430.496 33.4746H440.696L465.776 104.515L491.336 45.4746C492.216 43.4746 492.656 41.3946 492.656 39.2346C492.656 37.0746 492.056 35.3946 490.856 34.1946L491.816 33.4746ZM501.334 77.5146C501.334 62.9546 504.854 51.9146 511.894 44.3946C519.014 36.7946 528.134 32.9946 539.254 32.9946C550.374 32.9946 559.214 36.2746 565.774 42.8346C572.414 49.3946 575.734 59.8746 575.734 74.2746C575.734 88.6746 572.214 99.5546 565.174 106.915C558.134 114.275 548.734 117.955 536.974 117.955C526.814 117.955 518.494 115.035 512.014 109.195C508.654 106.155 506.014 101.955 504.094 96.5946C502.254 91.1546 501.334 84.7946 501.334 77.5146ZM538.894 34.1946C530.814 34.1946 524.174 37.7946 518.974 44.9946C513.854 52.1946 511.294 62.7546 511.294 76.6746C511.294 90.5946 513.734 100.755 518.614 107.155C523.494 113.555 529.974 116.755 538.054 116.755C546.214 116.755 552.854 113.155 557.974 105.955C563.174 98.6746 565.774 88.1546 565.774 74.3946C565.774 60.5546 563.294 50.3946 558.334 43.9146C553.454 37.4346 546.974 34.1946 538.894 34.1946Z" fill="#12455E"/>
<path d="M426.774 6.63461C428.32 6.52794 429.687 6.47461 430.874 6.47461C434.167 6.47461 435.814 7.57461 435.814 9.77461C435.814 10.7079 435.587 11.5413 435.134 12.2746C434.68 13.0079 433.9 13.4946 432.794 13.7346L436.794 20.4746H434.934L431.014 13.8546H428.434V20.4746H426.774V6.63461ZM430.874 6.67461C430.1 6.67461 429.287 6.72128 428.434 6.81461V13.6546H431.394C433.274 13.5746 434.214 12.2946 434.214 9.81461C434.214 8.80128 433.934 8.02794 433.374 7.49461C432.814 6.94794 431.98 6.67461 430.874 6.67461ZM439.545 15.5946C439.545 17.2479 439.832 18.4613 440.405 19.2346C440.992 20.0079 441.759 20.3946 442.705 20.3946C444.039 20.3946 445.225 20.1946 446.265 19.7946L446.325 19.9346C445.259 20.3479 444.052 20.5546 442.705 20.5546C441.372 20.5546 440.285 20.1546 439.445 19.3546C438.605 18.5546 438.185 17.3213 438.185 15.6546C438.185 13.9879 438.625 12.6946 439.505 11.7746C440.385 10.8546 441.505 10.3946 442.865 10.3946C443.959 10.3946 444.879 10.7213 445.625 11.3746C446.372 12.0279 446.745 12.9946 446.745 14.2746C446.745 14.3413 446.745 14.4079 446.745 14.4746H439.605C439.565 14.8346 439.545 15.2079 439.545 15.5946ZM445.385 14.3146C445.372 13.0346 445.125 12.0879 444.645 11.4746C444.165 10.8613 443.545 10.5546 442.785 10.5546C442.025 10.5546 441.345 10.8879 440.745 11.5546C440.159 12.2213 439.785 13.1413 439.625 14.3146H445.385ZM450.706 20.4746C449.532 20.4746 448.792 20.1679 448.486 19.5546C448.419 19.4213 448.386 19.3013 448.386 19.1946V5.49461H449.786V19.0546C449.786 19.4413 449.859 19.7413 450.006 19.9546C450.166 20.1546 450.326 20.2613 450.486 20.2746L450.706 20.3146H451.326V20.4746H450.706ZM460.703 20.4746C459.796 20.4746 459.176 20.3013 458.843 19.9546C458.536 19.6613 458.383 19.4079 458.383 19.1946V18.7746C457.73 19.9613 456.683 20.5546 455.243 20.5546C453.563 20.5546 452.61 19.7946 452.383 18.2746C452.356 18.1146 452.343 17.9546 452.343 17.7946C452.343 17.6213 452.37 17.4346 452.423 17.2346C452.476 17.0346 452.63 16.8146 452.883 16.5746C453.39 16.0946 454.503 15.8013 456.223 15.6946C456.65 15.6546 457.043 15.6346 457.403 15.6346C457.763 15.6346 458.09 15.6479 458.383 15.6746V12.3546C458.356 12.3413 458.356 12.2813 458.383 12.1746C458.41 12.0546 458.383 11.9079 458.303 11.7346C458.236 11.5479 458.143 11.3679 458.023 11.1946C457.903 11.0213 457.69 10.8746 457.383 10.7546C457.076 10.6213 456.676 10.5546 456.183 10.5546C455.69 10.5546 455.11 10.6479 454.443 10.8346C453.79 11.0079 453.31 11.1813 453.003 11.3546L452.923 11.2146C454.11 10.6679 455.316 10.3946 456.543 10.3946C457.916 10.3946 458.823 10.6413 459.263 11.1346C459.61 11.5213 459.783 11.9279 459.783 12.3546V19.0546C459.783 19.4413 459.856 19.7413 460.003 19.9546C460.163 20.1546 460.323 20.2613 460.483 20.2746L460.703 20.3146H461.323V20.4746H460.703ZM455.563 20.3946C456.27 20.3946 456.903 20.1546 457.463 19.6746C458.036 19.1813 458.343 18.7079 458.383 18.2546V15.8346C458.023 15.8079 457.656 15.7946 457.283 15.7946C456.923 15.7946 456.563 15.8146 456.203 15.8546C455.19 15.9746 454.53 16.2013 454.223 16.5346C453.916 16.8679 453.763 17.3279 453.763 17.9146C453.763 18.0213 453.77 18.1413 453.783 18.2746C453.903 19.6879 454.496 20.3946 455.563 20.3946ZM460.424 25.0946L460.484 24.9346C461.124 25.1879 461.75 25.3146 462.364 25.3146C462.99 25.3146 463.397 25.1213 463.584 24.7346C463.784 24.3479 463.884 23.7213 463.884 22.8546V10.4746H465.284V22.8346C465.284 23.8879 465.07 24.5879 464.644 24.9346C464.217 25.2946 463.57 25.4746 462.704 25.4746C461.85 25.4746 461.09 25.3479 460.424 25.0946ZM463.984 8.23461C463.824 8.07461 463.744 7.87461 463.744 7.63461C463.744 7.39461 463.824 7.19461 463.984 7.03461C464.144 6.86127 464.344 6.77461 464.584 6.77461C464.824 6.77461 465.024 6.86127 465.184 7.03461C465.357 7.19461 465.444 7.39461 465.444 7.63461C465.444 7.87461 465.357 8.07461 465.184 8.23461C465.024 8.39461 464.824 8.47461 464.584 8.47461C464.344 8.47461 464.144 8.39461 463.984 8.23461ZM475.312 20.4746C474.406 20.4746 473.786 20.3013 473.452 19.9546C473.146 19.6613 472.992 19.4079 472.992 19.1946V18.7746C472.339 19.9613 471.292 20.5546 469.852 20.5546C468.172 20.5546 467.219 19.7946 466.992 18.2746C466.966 18.1146 466.952 17.9546 466.952 17.7946C466.952 17.6213 466.979 17.4346 467.032 17.2346C467.086 17.0346 467.239 16.8146 467.492 16.5746C467.999 16.0946 469.112 15.8013 470.832 15.6946C471.259 15.6546 471.652 15.6346 472.012 15.6346C472.372 15.6346 472.699 15.6479 472.992 15.6746V12.3546C472.966 12.3413 472.966 12.2813 472.992 12.1746C473.019 12.0546 472.992 11.9079 472.912 11.7346C472.846 11.5479 472.752 11.3679 472.632 11.1946C472.512 11.0213 472.299 10.8746 471.992 10.7546C471.686 10.6213 471.286 10.5546 470.792 10.5546C470.299 10.5546 469.719 10.6479 469.052 10.8346C468.399 11.0079 467.919 11.1813 467.612 11.3546L467.532 11.2146C468.719 10.6679 469.926 10.3946 471.152 10.3946C472.526 10.3946 473.432 10.6413 473.872 11.1346C474.219 11.5213 474.392 11.9279 474.392 12.3546V19.0546C474.392 19.4413 474.466 19.7413 474.612 19.9546C474.772 20.1546 474.932 20.2613 475.092 20.2746L475.312 20.3146H475.932V20.4746H475.312ZM470.172 20.3946C470.879 20.3946 471.512 20.1546 472.072 19.6746C472.646 19.1813 472.952 18.7079 472.992 18.2546V15.8346C472.632 15.8079 472.266 15.7946 471.892 15.7946C471.532 15.7946 471.172 15.8146 470.812 15.8546C469.799 15.9746 469.139 16.2013 468.832 16.5346C468.526 16.8679 468.372 17.3279 468.372 17.9146C468.372 18.0213 468.379 18.1413 468.392 18.2746C468.512 19.6879 469.106 20.3946 470.172 20.3946ZM477.324 10.6346V10.4746H477.744V8.47461H479.144V10.4746H482.204V10.6346H479.144V17.9146C479.144 18.7813 479.237 19.4079 479.424 19.7946C479.624 20.1813 480.03 20.3746 480.644 20.3746C481.27 20.3746 481.904 20.2479 482.544 19.9946L482.604 20.1546C481.937 20.4079 481.17 20.5346 480.304 20.5346C479.45 20.5346 478.81 20.3613 478.384 20.0146C477.957 19.6546 477.744 18.9479 477.744 17.8946V10.6346H477.324ZM484.858 15.5946C484.858 17.2479 485.144 18.4613 485.718 19.2346C486.304 20.0079 487.071 20.3946 488.018 20.3946C489.351 20.3946 490.538 20.1946 491.578 19.7946L491.638 19.9346C490.571 20.3479 489.364 20.5546 488.018 20.5546C486.684 20.5546 485.598 20.1546 484.758 19.3546C483.918 18.5546 483.498 17.3213 483.498 15.6546C483.498 13.9879 483.938 12.6946 484.818 11.7746C485.698 10.8546 486.818 10.3946 488.178 10.3946C489.271 10.3946 490.191 10.7213 490.938 11.3746C491.684 12.0279 492.058 12.9946 492.058 14.2746C492.058 14.3413 492.058 14.4079 492.058 14.4746H484.918C484.878 14.8346 484.858 15.2079 484.858 15.5946ZM490.698 14.3146C490.684 13.0346 490.438 12.0879 489.958 11.4746C489.478 10.8613 488.858 10.5546 488.098 10.5546C487.338 10.5546 486.658 10.8879 486.058 11.5546C485.471 12.2213 485.098 13.1413 484.938 14.3146H490.698ZM508.335 6.47461C508.588 6.72794 508.715 7.05461 508.715 7.45461C508.715 7.78794 508.641 8.12794 508.495 8.47461L504.915 15.7346V20.4746H503.255V16.1746L499.255 6.47461H500.955L504.775 15.4946L508.255 8.47461C508.401 8.14128 508.475 7.79461 508.475 7.43461C508.475 7.07461 508.375 6.79461 508.175 6.59461L508.335 6.47461ZM516.135 20.4746H515.895L521.875 6.47461L522.095 6.37461L527.135 20.4746H525.435L523.875 16.0746H518.035L516.135 20.4746ZM521.255 8.63461L518.115 15.8746H523.815L521.255 8.63461ZM528.542 10.4746H529.942V12.9546C530.168 12.3413 530.588 11.7613 531.202 11.2146C531.815 10.6679 532.508 10.3946 533.282 10.3946C535.988 10.3946 537.342 11.9813 537.342 15.1546C537.342 18.7546 535.595 20.5546 532.102 20.5546C531.475 20.5546 530.755 20.4079 529.942 20.1146V25.4746H528.542V10.4746ZM533.262 10.5546C532.435 10.5546 531.688 10.9146 531.022 11.6346C530.355 12.3413 529.995 12.9813 529.942 13.5546V19.9346C530.755 20.2413 531.468 20.3946 532.082 20.3946C534.655 20.3946 535.942 18.6413 535.942 15.1346C535.942 12.0813 535.048 10.5546 533.262 10.5546ZM542.767 11.3346V10.9146C542.167 11.1546 541.62 11.6413 541.127 12.3746C540.634 13.0946 540.374 13.7746 540.347 14.4146V20.4746H538.947V10.4746H540.347V13.6546C540.56 12.8813 540.967 12.1546 541.567 11.4746C542.167 10.7813 542.847 10.4213 543.607 10.3946H543.687C543.954 10.3946 544.174 10.4879 544.347 10.6746C544.534 10.8479 544.627 11.0679 544.627 11.3346C544.627 11.6013 544.534 11.8213 544.347 11.9946C544.174 12.1679 543.954 12.2546 543.687 12.2546C543.42 12.2546 543.2 12.1679 543.027 11.9946C542.854 11.8213 542.767 11.6013 542.767 11.3346ZM546.889 15.5946C546.889 17.2479 547.176 18.4613 547.749 19.2346C548.336 20.0079 549.102 20.3946 550.049 20.3946C551.382 20.3946 552.569 20.1946 553.609 19.7946L553.669 19.9346C552.602 20.3479 551.396 20.5546 550.049 20.5546C548.716 20.5546 547.629 20.1546 546.789 19.3546C545.949 18.5546 545.529 17.3213 545.529 15.6546C545.529 13.9879 545.969 12.6946 546.849 11.7746C547.729 10.8546 548.849 10.3946 550.209 10.3946C551.302 10.3946 552.222 10.7213 552.969 11.3746C553.716 12.0279 554.089 12.9946 554.089 14.2746C554.089 14.3413 554.089 14.4079 554.089 14.4746H546.949C546.909 14.8346 546.889 15.2079 546.889 15.5946ZM552.729 14.3146C552.716 13.0346 552.469 12.0879 551.989 11.4746C551.509 10.8613 550.889 10.5546 550.129 10.5546C549.369 10.5546 548.689 10.8879 548.089 11.5546C547.502 12.2213 547.129 13.1413 546.969 14.3146H552.729ZM563.204 20.4746C562.657 20.4746 562.237 20.3546 561.944 20.1146C561.664 19.8746 561.517 19.6346 561.504 19.3946L561.484 19.0546V12.7746C561.484 11.7213 561.211 11.0479 560.664 10.7546C560.384 10.6213 560.037 10.5546 559.624 10.5546C558.771 10.5546 558.004 10.8946 557.324 11.5746C556.644 12.2413 556.304 12.8413 556.304 13.3746V20.4746H554.904V10.4746H556.304V12.7546C556.531 12.1813 556.951 11.6479 557.564 11.1546C558.177 10.6479 558.851 10.3946 559.584 10.3946C560.317 10.3946 560.911 10.4679 561.364 10.6146C561.831 10.7479 562.171 10.9413 562.384 11.1946C562.717 11.6079 562.884 12.1413 562.884 12.7946V19.0546C562.884 19.4413 562.957 19.7413 563.104 19.9546C563.264 20.1546 563.424 20.2613 563.584 20.2746L563.804 20.3146H564.424V20.4746H563.204ZM565.236 15.8346C565.236 14.1013 565.656 12.7613 566.496 11.8146C567.336 10.8679 568.596 10.3946 570.276 10.3946C571.063 10.3946 571.856 10.5946 572.656 10.9946V5.49461H574.056V19.0546C574.056 19.4413 574.129 19.7413 574.276 19.9546C574.436 20.1546 574.596 20.2613 574.756 20.2746L574.976 20.3146H575.596V20.4746H574.376C573.829 20.4746 573.409 20.3546 573.116 20.1146C572.836 19.8746 572.689 19.6346 572.676 19.3946L572.656 19.0546V18.7346C572.403 19.2013 571.983 19.6146 571.396 19.9746C570.809 20.3346 570.116 20.5146 569.316 20.5146C566.596 20.4479 565.236 18.8879 565.236 15.8346ZM569.336 20.3546C570.229 20.3546 570.996 20.1146 571.636 19.6346C572.276 19.1546 572.616 18.6813 572.656 18.2146V11.1746C571.709 10.7613 570.896 10.5546 570.216 10.5546C569.029 10.5546 568.136 11.0213 567.536 11.9546C566.936 12.8746 566.636 14.1679 566.636 15.8346C566.636 18.8479 567.536 20.3546 569.336 20.3546ZM577.553 15.5946C577.553 17.2479 577.84 18.4613 578.413 19.2346C579 20.0079 579.766 20.3946 580.713 20.3946C582.046 20.3946 583.233 20.1946 584.273 19.7946L584.333 19.9346C583.266 20.3479 582.06 20.5546 580.713 20.5546C579.38 20.5546 578.293 20.1546 577.453 19.3546C576.613 18.5546 576.193 17.3213 576.193 15.6546C576.193 13.9879 576.633 12.6946 577.513 11.7746C578.393 10.8546 579.513 10.3946 580.873 10.3946C581.966 10.3946 582.886 10.7213 583.633 11.3746C584.38 12.0279 584.753 12.9946 584.753 14.2746C584.753 14.3413 584.753 14.4079 584.753 14.4746H577.613C577.573 14.8346 577.553 15.2079 577.553 15.5946ZM583.393 14.3146C583.38 13.0346 583.133 12.0879 582.653 11.4746C582.173 10.8613 581.553 10.5546 580.793 10.5546C580.033 10.5546 579.353 10.8879 578.753 11.5546C578.166 12.2213 577.793 13.1413 577.633 14.3146H583.393Z" fill="#09232F"/>
</svg>
