<svg width="591" height="153" viewBox="0 0 591 153" fill="none" xmlns="http://www.w3.org/2000/svg">
<path d="M427.4 6.16C428.947 6.05333 430.313 6 431.5 6C434.793 6 436.44 7.1 436.44 9.3C436.44 10.2333 436.213 11.0667 435.76 11.8C435.307 12.5333 434.527 13.02 433.42 13.26L437.42 20H435.56L431.64 13.38H429.06V20H427.4V6.16ZM431.5 6.2C430.727 6.2 429.913 6.24667 429.06 6.34V13.18H432.02C433.9 13.1 434.84 11.82 434.84 9.34C434.84 8.32667 434.56 7.55333 434 7.02C433.44 6.47333 432.607 6.2 431.5 6.2ZM440.172 15.12C440.172 16.7733 440.458 17.9867 441.032 18.76C441.618 19.5333 442.385 19.92 443.332 19.92C444.665 19.92 445.852 19.72 446.892 19.32L446.952 19.46C445.885 19.8733 444.678 20.08 443.332 20.08C441.998 20.08 440.912 19.68 440.072 18.88C439.232 18.08 438.812 16.8467 438.812 15.18C438.812 13.5133 439.252 12.22 440.132 11.3C441.012 10.38 442.132 9.92 443.492 9.92C444.585 9.92 445.505 10.2467 446.252 10.9C446.998 11.5533 447.372 12.52 447.372 13.8C447.372 13.8667 447.372 13.9333 447.372 14H440.232C440.192 14.36 440.172 14.7333 440.172 15.12ZM446.012 13.84C445.998 12.56 445.752 11.6133 445.272 11C444.792 10.3867 444.172 10.08 443.412 10.08C442.652 10.08 441.972 10.4133 441.372 11.08C440.785 11.7467 440.412 12.6667 440.252 13.84H446.012ZM451.332 20C450.159 20 449.419 19.6933 449.112 19.08C449.046 18.9467 449.012 18.8267 449.012 18.72V5.02H450.412V18.58C450.412 18.9667 450.486 19.2667 450.632 19.48C450.792 19.68 450.952 19.7867 451.112 19.8L451.332 19.84H451.952V20H451.332ZM461.33 20C460.423 20 459.803 19.8267 459.47 19.48C459.163 19.1867 459.01 18.9333 459.01 18.72V18.3C458.356 19.4867 457.31 20.08 455.87 20.08C454.19 20.08 453.236 19.32 453.01 17.8C452.983 17.64 452.97 17.48 452.97 17.32C452.97 17.1467 452.996 16.96 453.05 16.76C453.103 16.56 453.256 16.34 453.51 16.1C454.016 15.62 455.13 15.3267 456.85 15.22C457.276 15.18 457.67 15.16 458.03 15.16C458.39 15.16 458.716 15.1733 459.01 15.2V11.88C458.983 11.8667 458.983 11.8067 459.01 11.7C459.036 11.58 459.01 11.4333 458.93 11.26C458.863 11.0733 458.77 10.8933 458.65 10.72C458.53 10.5467 458.316 10.4 458.01 10.28C457.703 10.1467 457.303 10.08 456.81 10.08C456.316 10.08 455.736 10.1733 455.07 10.36C454.416 10.5333 453.936 10.7067 453.63 10.88L453.55 10.74C454.736 10.1933 455.943 9.92 457.17 9.92C458.543 9.92 459.45 10.1667 459.89 10.66C460.236 11.0467 460.41 11.4533 460.41 11.88V18.58C460.41 18.9667 460.483 19.2667 460.63 19.48C460.79 19.68 460.95 19.7867 461.11 19.8L461.33 19.84H461.95V20H461.33ZM456.19 19.92C456.896 19.92 457.53 19.68 458.09 19.2C458.663 18.7067 458.97 18.2333 459.01 17.78V15.36C458.65 15.3333 458.283 15.32 457.91 15.32C457.55 15.32 457.19 15.34 456.83 15.38C455.816 15.5 455.156 15.7267 454.85 16.06C454.543 16.3933 454.39 16.8533 454.39 17.44C454.39 17.5467 454.396 17.6667 454.41 17.8C454.53 19.2133 455.123 19.92 456.19 19.92ZM461.05 24.62L461.11 24.46C461.75 24.7133 462.377 24.84 462.99 24.84C463.617 24.84 464.023 24.6467 464.21 24.26C464.41 23.8733 464.51 23.2467 464.51 22.38V10H465.91V22.36C465.91 23.4133 465.697 24.1133 465.27 24.46C464.843 24.82 464.197 25 463.33 25C462.477 25 461.717 24.8733 461.05 24.62ZM464.61 7.76C464.45 7.6 464.37 7.4 464.37 7.16C464.37 6.92 464.45 6.72 464.61 6.56C464.77 6.38667 464.97 6.3 465.21 6.3C465.45 6.3 465.65 6.38667 465.81 6.56C465.983 6.72 466.07 6.92 466.07 7.16C466.07 7.4 465.983 7.6 465.81 7.76C465.65 7.92 465.45 8 465.21 8C464.97 8 464.77 7.92 464.61 7.76ZM475.939 20C475.032 20 474.412 19.8267 474.079 19.48C473.772 19.1867 473.619 18.9333 473.619 18.72V18.3C472.966 19.4867 471.919 20.08 470.479 20.08C468.799 20.08 467.846 19.32 467.619 17.8C467.592 17.64 467.579 17.48 467.579 17.32C467.579 17.1467 467.606 16.96 467.659 16.76C467.712 16.56 467.866 16.34 468.119 16.1C468.626 15.62 469.739 15.3267 471.459 15.22C471.886 15.18 472.279 15.16 472.639 15.16C472.999 15.16 473.326 15.1733 473.619 15.2V11.88C473.592 11.8667 473.592 11.8067 473.619 11.7C473.646 11.58 473.619 11.4333 473.539 11.26C473.472 11.0733 473.379 10.8933 473.259 10.72C473.139 10.5467 472.926 10.4 472.619 10.28C472.312 10.1467 471.912 10.08 471.419 10.08C470.926 10.08 470.346 10.1733 469.679 10.36C469.026 10.5333 468.546 10.7067 468.239 10.88L468.159 10.74C469.346 10.1933 470.552 9.92 471.779 9.92C473.152 9.92 474.059 10.1667 474.499 10.66C474.846 11.0467 475.019 11.4533 475.019 11.88V18.58C475.019 18.9667 475.092 19.2667 475.239 19.48C475.399 19.68 475.559 19.7867 475.719 19.8L475.939 19.84H476.559V20H475.939ZM470.799 19.92C471.506 19.92 472.139 19.68 472.699 19.2C473.272 18.7067 473.579 18.2333 473.619 17.78V15.36C473.259 15.3333 472.892 15.32 472.519 15.32C472.159 15.32 471.799 15.34 471.439 15.38C470.426 15.5 469.766 15.7267 469.459 16.06C469.152 16.3933 468.999 16.8533 468.999 17.44C468.999 17.5467 469.006 17.6667 469.019 17.8C469.139 19.2133 469.732 19.92 470.799 19.92ZM477.95 10.16V10H478.37V8H479.77V10H482.83V10.16H479.77V17.44C479.77 18.3067 479.863 18.9333 480.05 19.32C480.25 19.7067 480.657 19.9 481.27 19.9C481.897 19.9 482.53 19.7733 483.17 19.52L483.23 19.68C482.563 19.9333 481.797 20.06 480.93 20.06C480.077 20.06 479.437 19.8867 479.01 19.54C478.583 19.18 478.37 18.4733 478.37 17.42V10.16H477.95ZM485.484 15.12C485.484 16.7733 485.771 17.9867 486.344 18.76C486.931 19.5333 487.698 19.92 488.644 19.92C489.978 19.92 491.164 19.72 492.204 19.32L492.264 19.46C491.198 19.8733 489.991 20.08 488.644 20.08C487.311 20.08 486.224 19.68 485.384 18.88C484.544 18.08 484.124 16.8467 484.124 15.18C484.124 13.5133 484.564 12.22 485.444 11.3C486.324 10.38 487.444 9.92 488.804 9.92C489.898 9.92 490.818 10.2467 491.564 10.9C492.311 11.5533 492.684 12.52 492.684 13.8C492.684 13.8667 492.684 13.9333 492.684 14H485.544C485.504 14.36 485.484 14.7333 485.484 15.12ZM491.324 13.84C491.311 12.56 491.064 11.6133 490.584 11C490.104 10.3867 489.484 10.08 488.724 10.08C487.964 10.08 487.284 10.4133 486.684 11.08C486.098 11.7467 485.724 12.6667 485.564 13.84H491.324ZM508.961 6C509.215 6.25333 509.341 6.58 509.341 6.98C509.341 7.31333 509.268 7.65333 509.121 8L505.541 15.26V20H503.881V15.7L499.881 6H501.581L505.401 15.02L508.881 8C509.028 7.66667 509.101 7.32 509.101 6.96C509.101 6.6 509.001 6.32 508.801 6.12L508.961 6ZM516.762 20H516.522L522.502 6L522.722 5.9L527.762 20H526.062L524.502 15.6H518.662L516.762 20ZM521.882 8.16L518.742 15.4H524.442L521.882 8.16ZM529.168 10H530.568V12.48C530.795 11.8667 531.215 11.2867 531.828 10.74C532.441 10.1933 533.135 9.92 533.908 9.92C536.615 9.92 537.968 11.5067 537.968 14.68C537.968 18.28 536.221 20.08 532.728 20.08C532.101 20.08 531.381 19.9333 530.568 19.64V25H529.168V10ZM533.888 10.08C533.061 10.08 532.315 10.44 531.648 11.16C530.981 11.8667 530.621 12.5067 530.568 13.08V19.46C531.381 19.7667 532.095 19.92 532.708 19.92C535.281 19.92 536.568 18.1667 536.568 14.66C536.568 11.6067 535.675 10.08 533.888 10.08ZM543.393 10.86V10.44C542.793 10.68 542.247 11.1667 541.753 11.9C541.26 12.62 541 13.3 540.973 13.94V20H539.573V10H540.973V13.18C541.187 12.4067 541.593 11.68 542.193 11C542.793 10.3067 543.473 9.94667 544.233 9.92H544.313C544.58 9.92 544.8 10.0133 544.973 10.2C545.16 10.3733 545.253 10.5933 545.253 10.86C545.253 11.1267 545.16 11.3467 544.973 11.52C544.8 11.6933 544.58 11.78 544.313 11.78C544.047 11.78 543.827 11.6933 543.653 11.52C543.48 11.3467 543.393 11.1267 543.393 10.86ZM547.515 15.12C547.515 16.7733 547.802 17.9867 548.375 18.76C548.962 19.5333 549.729 19.92 550.675 19.92C552.009 19.92 553.195 19.72 554.235 19.32L554.295 19.46C553.229 19.8733 552.022 20.08 550.675 20.08C549.342 20.08 548.255 19.68 547.415 18.88C546.575 18.08 546.155 16.8467 546.155 15.18C546.155 13.5133 546.595 12.22 547.475 11.3C548.355 10.38 549.475 9.92 550.835 9.92C551.929 9.92 552.849 10.2467 553.595 10.9C554.342 11.5533 554.715 12.52 554.715 13.8C554.715 13.8667 554.715 13.9333 554.715 14H547.575C547.535 14.36 547.515 14.7333 547.515 15.12ZM553.355 13.84C553.342 12.56 553.095 11.6133 552.615 11C552.135 10.3867 551.515 10.08 550.755 10.08C549.995 10.08 549.315 10.4133 548.715 11.08C548.129 11.7467 547.755 12.6667 547.595 13.84H553.355ZM563.83 20C563.284 20 562.864 19.88 562.57 19.64C562.29 19.4 562.144 19.16 562.13 18.92L562.11 18.58V12.3C562.11 11.2467 561.837 10.5733 561.29 10.28C561.01 10.1467 560.664 10.08 560.25 10.08C559.397 10.08 558.63 10.42 557.95 11.1C557.27 11.7667 556.93 12.3667 556.93 12.9V20H555.53V10H556.93V12.28C557.157 11.7067 557.577 11.1733 558.19 10.68C558.804 10.1733 559.477 9.92 560.21 9.92C560.944 9.92 561.537 9.99333 561.99 10.14C562.457 10.2733 562.797 10.4667 563.01 10.72C563.344 11.1333 563.51 11.6667 563.51 12.32V18.58C563.51 18.9667 563.584 19.2667 563.73 19.48C563.89 19.68 564.05 19.7867 564.21 19.8L564.43 19.84H565.05V20H563.83ZM565.863 15.36C565.863 13.6267 566.283 12.2867 567.123 11.34C567.963 10.3933 569.223 9.92 570.903 9.92C571.689 9.92 572.483 10.12 573.283 10.52V5.02H574.683V18.58C574.683 18.9667 574.756 19.2667 574.903 19.48C575.063 19.68 575.223 19.7867 575.383 19.8L575.603 19.84H576.223V20H575.003C574.456 20 574.036 19.88 573.743 19.64C573.463 19.4 573.316 19.16 573.303 18.92L573.283 18.58V18.26C573.029 18.7267 572.609 19.14 572.023 19.5C571.436 19.86 570.743 20.04 569.943 20.04C567.223 19.9733 565.863 18.4133 565.863 15.36ZM569.963 19.88C570.856 19.88 571.623 19.64 572.263 19.16C572.903 18.68 573.243 18.2067 573.283 17.74V10.7C572.336 10.2867 571.523 10.08 570.843 10.08C569.656 10.08 568.763 10.5467 568.163 11.48C567.563 12.4 567.263 13.6933 567.263 15.36C567.263 18.3733 568.163 19.88 569.963 19.88ZM578.18 15.12C578.18 16.7733 578.466 17.9867 579.04 18.76C579.626 19.5333 580.393 19.92 581.34 19.92C582.673 19.92 583.86 19.72 584.9 19.32L584.96 19.46C583.893 19.8733 582.686 20.08 581.34 20.08C580.006 20.08 578.92 19.68 578.08 18.88C577.24 18.08 576.82 16.8467 576.82 15.18C576.82 13.5133 577.26 12.22 578.14 11.3C579.02 10.38 580.14 9.92 581.5 9.92C582.593 9.92 583.513 10.2467 584.26 10.9C585.006 11.5533 585.38 12.52 585.38 13.8C585.38 13.8667 585.38 13.9333 585.38 14H578.24C578.2 14.36 578.18 14.7333 578.18 15.12ZM584.02 13.84C584.006 12.56 583.76 11.6133 583.28 11C582.8 10.3867 582.18 10.08 581.42 10.08C580.66 10.08 579.98 10.4133 579.38 11.08C578.793 11.7467 578.42 12.6667 578.26 13.84H584.02Z" fill="white"/>
<path d="M17.4282 117H15.8682L26.3082 33H30.2682L55.4682 110.64L80.5482 33H84.5082L94.9482 117H84.9882L76.7082 49.8L54.9882 117H47.4282L25.4682 50.64L17.4282 117ZM106.998 77.04C106.998 62.48 110.518 51.44 117.558 43.92C124.678 36.32 133.798 32.52 144.918 32.52C156.038 32.52 164.878 35.8 171.438 42.36C178.078 48.92 181.398 59.4 181.398 73.8C181.398 88.2 177.878 99.08 170.838 106.44C163.798 113.8 154.398 117.48 142.638 117.48C132.478 117.48 124.158 114.56 117.678 108.72C114.318 105.68 111.678 101.48 109.758 96.12C107.918 90.68 106.998 84.32 106.998 77.04ZM144.558 33.72C136.478 33.72 129.838 37.32 124.638 44.52C119.518 51.72 116.958 62.28 116.958 76.2C116.958 90.12 119.398 100.28 124.278 106.68C129.158 113.08 135.638 116.28 143.718 116.28C151.878 116.28 158.518 112.68 163.638 105.48C168.838 98.2 171.438 87.68 171.438 73.92C171.438 60.08 168.958 49.92 163.998 43.44C159.118 36.96 152.638 33.72 144.558 33.72ZM195.553 117H193.993V33H198.073L247.993 110.64V33H249.553V117H240.793L195.553 47.4V117ZM291.646 117H281.686V34.2H260.926V33H312.526V34.2H291.646V117ZM311.585 117H310.145L346.025 33L347.345 32.4L377.585 117H367.385L358.025 90.6H322.985L311.585 117ZM342.305 45.96L323.465 89.4H357.665L342.305 45.96ZM434.021 117H388.421V33H398.381V115.8H434.021V117ZM491.816 33C493.336 34.52 494.096 36.48 494.096 38.88C494.096 40.88 493.656 42.92 492.776 45L462.056 117L460.736 117.6L430.496 33H440.696L465.776 104.04L491.336 45C492.216 43 492.656 40.92 492.656 38.76C492.656 36.6 492.056 34.92 490.856 33.72L491.816 33ZM501.334 77.04C501.334 62.48 504.854 51.44 511.894 43.92C519.014 36.32 528.134 32.52 539.254 32.52C550.374 32.52 559.214 35.8 565.774 42.36C572.414 48.92 575.734 59.4 575.734 73.8C575.734 88.2 572.214 99.08 565.174 106.44C558.134 113.8 548.734 117.48 536.974 117.48C526.814 117.48 518.494 114.56 512.014 108.72C508.654 105.68 506.014 101.48 504.094 96.12C502.254 90.68 501.334 84.32 501.334 77.04ZM538.894 33.72C530.814 33.72 524.174 37.32 518.974 44.52C513.854 51.72 511.294 62.28 511.294 76.2C511.294 90.12 513.734 100.28 518.614 106.68C523.494 113.08 529.974 116.28 538.054 116.28C546.214 116.28 552.854 112.68 557.974 105.48C563.174 98.2 565.774 87.68 565.774 73.92C565.774 60.08 563.294 49.92 558.334 43.44C553.454 36.96 546.974 33.72 538.894 33.72Z" fill="white"/>
</svg>
