<svg width="38" height="38" viewBox="0 0 38 38" fill="none" xmlns="http://www.w3.org/2000/svg">
<path d="M14.2 1.6C10.9 3.9 11.3 9.2 15.2 15.7C17 18.6 18.7 21 19 21C19.3 21 21 18.6 22.8 15.7C28.1 6.9 26.5 0 19 0C17.6 0 15.4 0.699999 14.2 1.6ZM23.2 2.7C24.2 3.6 25 5.4 25 6.8C25 9.6 20.5 18 19 18C17.6 18 13 9.6 13 7C13 1.8 19.3 -0.9 23.2 2.7Z" fill="#122335"/>
<path d="M17.2 7.2C17.4 8.5 18.2 9.5 19 9.5C19.8 9.5 20.6 8.5 20.8 7.2C21.1 5.5 20.6 5 19 5C17.4 5 16.9 5.5 17.2 7.2ZM20 7C20 7.5 19.6 8 19 8C18.5 8 18 7.5 18 7C18 6.4 18.5 6 19 6C19.6 6 20 6.4 20 7Z" fill="#122335"/>
<path d="M8.69999 7.70001C8.29999 8.00001 7.99999 9.10001 7.99999 10C7.99999 10.9 6.89999 12.2 5.49999 12.8C4.09999 13.4 2.19999 15.5 1.29999 17.5C-0.200006 20.7 -0.200006 21.1 1.19999 22.3C2.09999 22.9 3.99999 26.1 5.49999 29.2C8.39999 35.6 8.79999 35.9 13.9 37.1C16.9 37.8 17.7 37.6 19.1 35.9L20.6 33.8L25.4 36.1C30.7 38.7 33.7 37.9 33.2 34C33.1 32.8 34.1 29.9 35.5 27.6C37.7 23.8 37.9 23.1 36.5 22C34.6 20.4 34.6 16.4 36.5 15.6C38.3 14.9 38.5 9.00001 36.8 8.90001C36.1 8.80001 34.5 8.90001 33.3 8.90001C32.2 9.00001 30.9 8.60001 30.5 8.10001C30.2 7.50001 29.5 7.00001 28.9 7.00001C28.4 7.00001 28.5 7.90001 29.2 8.90001C30.1 10.4 31.1 10.7 33.7 10.3C36.5 9.80001 37 10 37 11.7C37 12.9 36.1 14.4 34.9 15.2C32.9 16.5 32.8 16.7 34.4 20.4C35.9 24.1 35.9 24.5 34 27.7C32.9 29.6 32 32.2 32 33.6C32 37 29.7 37.6 25.7 35.1C21.6 32.6 19.4 32.4 18.2 34.6C17.5 35.9 16.4 36.1 13.3 35.6C9.59999 34.9 9.19999 34.5 6.49999 28.4C4.89999 24.8 2.89999 21.5 2.19999 21.1C0.999994 20.4 0.999994 19.9 2.49999 17.6C3.49999 16.1 5.39999 14.3 6.79999 13.6C8.29999 12.8 9.39999 11.3 9.59999 9.60001C9.89999 6.90001 9.79999 6.60001 8.69999 7.70001Z" fill="#122335"/>
<path d="M13 22.4998C13 23.3998 13.5 23.9998 14.1 23.7998C14.7 23.5998 15.2 22.9998 15.2 22.4998C15.2 21.9998 14.7 21.3998 14.1 21.1998C13.5 20.9998 13 21.5998 13 22.4998Z" fill="#122335"/>
<circle cx="9.5" cy="31.5" r="0.5" fill="#122335"/>
<circle cx="20.5" cy="31.5" r="0.5" fill="#122335"/>
<circle cx="17.5" cy="32.5" r="0.5" fill="#122335"/>
<circle cx="14.5" cy="34.5" r="0.5" fill="#122335"/>
<circle cx="11.5" cy="33.5" r="0.5" fill="#122335"/>
<circle cx="30.5" cy="31.5" r="0.5" fill="#122335"/>
<circle cx="29.5" cy="34.5" r="0.5" fill="#122335"/>
<circle cx="26.5" cy="33.5" r="0.5" fill="#122335"/>
<circle cx="23.5" cy="31.5" r="0.5" fill="#122335"/>
<circle cx="33.5" cy="24.5" r="0.5" fill="#122335"/>
<circle cx="32.5" cy="20.5" r="0.5" fill="#122335"/>
<circle cx="31.5" cy="16.5" r="0.5" fill="#122335"/>
<circle cx="31.5" cy="27.5" r="0.5" fill="#122335"/>
<circle cx="32.5" cy="11.5" r="0.5" fill="#122335"/>
<circle cx="35.5" cy="11.5" r="0.5" fill="#122335"/>
<circle cx="33.5" cy="14.5" r="0.5" fill="#122335"/>
<circle cx="29.5" cy="10.5" r="0.5" fill="#122335"/>
<circle cx="4.5" cy="22.5" r="0.5" fill="#122335"/>
<circle cx="6.5" cy="25.5" r="0.5" fill="#122335"/>
<circle cx="8.5" cy="28.5" r="0.5" fill="#122335"/>
<circle cx="9.5" cy="13.5" r="0.5" fill="#122335"/>
<circle cx="7.5" cy="15.5" r="0.5" fill="#122335"/>
<circle cx="5.5" cy="17.5" r="0.5" fill="#122335"/>
<circle cx="3.5" cy="19.5" r="0.5" fill="#122335"/>
</svg>
